<mxfile host="app.diagrams.net" modified="2021-02-08T15:55:35.526Z" agent="5.0 (Windows)" etag="S9nQf-0aog96OpMeJZck" version="14.3.0" type="github">
  <diagram id="CzaC1tTIqX8GQ-fHoQii" name="Page-1">
    <mxGraphModel dx="868" dy="451" grid="1" gridSize="10" guides="1" tooltips="1" connect="1" arrows="1" fold="1" page="1" pageScale="1" pageWidth="850" pageHeight="1100" math="0" shadow="0">
      <root>
        <mxCell id="0" />
        <mxCell id="1" parent="0" />
        <mxCell id="L6aboQJGT98tequVDPCX-1" value="User" style="verticalLabelPosition=bottom;html=1;verticalAlign=top;align=center;strokeColor=none;fillColor=#00BEF2;shape=mxgraph.azure.user;" parent="1" vertex="1">
          <mxGeometry x="100" y="240" width="47.5" height="50" as="geometry" />
        </mxCell>
        <mxCell id="L6aboQJGT98tequVDPCX-2" value="Front End" style="fillColor=#28A8E0;verticalLabelPosition=bottom;html=1;strokeColor=#ffffff;verticalAlign=top;align=center;points=[[0.145,0.145,0],[0.5,0,0],[0.855,0.145,0],[1,0.5,0],[0.855,0.855,0],[0.5,1,0],[0.145,0.855,0],[0,0.5,0]];pointerEvents=1;shape=mxgraph.cisco_safe.compositeIcon;bgIcon=ellipse;resIcon=mxgraph.cisco_safe.capability.application;" parent="1" vertex="1">
          <mxGeometry x="290" y="210" width="91" height="100" as="geometry" />
        </mxCell>
        <mxCell id="L6aboQJGT98tequVDPCX-3" value="Back End" style="fillColor=#28A8E0;verticalLabelPosition=bottom;html=1;strokeColor=#ffffff;verticalAlign=top;align=center;points=[[0.145,0.145,0],[0.5,0,0],[0.855,0.145,0],[1,0.5,0],[0.855,0.855,0],[0.5,1,0],[0.145,0.855,0],[0,0.5,0]];pointerEvents=1;shape=mxgraph.cisco_safe.compositeIcon;bgIcon=ellipse;resIcon=mxgraph.cisco_safe.capability.application;" parent="1" vertex="1">
          <mxGeometry x="500" y="210" width="91" height="100" as="geometry" />
        </mxCell>
        <mxCell id="L6aboQJGT98tequVDPCX-4" value="Database" style="html=1;verticalLabelPosition=bottom;align=center;labelBackgroundColor=#ffffff;verticalAlign=top;strokeWidth=2;strokeColor=#0080F0;shadow=0;dashed=0;shape=mxgraph.ios7.icons.data;" parent="1" vertex="1">
          <mxGeometry x="730" y="217.5" width="70" height="85" as="geometry" />
        </mxCell>
        <mxCell id="L6aboQJGT98tequVDPCX-5" value="" style="endArrow=classic;startArrow=classic;html=1;entryX=0.87;entryY=0.65;entryDx=0;entryDy=0;entryPerimeter=0;exitX=-0.022;exitY=0.6;exitDx=0;exitDy=0;exitPerimeter=0;" parent="1" source="L6aboQJGT98tequVDPCX-2" target="L6aboQJGT98tequVDPCX-1" edge="1">
          <mxGeometry width="50" height="50" relative="1" as="geometry">
            <mxPoint x="400" y="260" as="sourcePoint" />
            <mxPoint x="450" y="210" as="targetPoint" />
          </mxGeometry>
        </mxCell>
        <mxCell id="L6aboQJGT98tequVDPCX-7" value="" style="endArrow=classic;startArrow=classic;html=1;exitX=1.011;exitY=0.57;exitDx=0;exitDy=0;exitPerimeter=0;entryX=-0.022;entryY=0.6;entryDx=0;entryDy=0;entryPerimeter=0;" parent="1" source="L6aboQJGT98tequVDPCX-2" target="L6aboQJGT98tequVDPCX-3" edge="1">
          <mxGeometry width="50" height="50" relative="1" as="geometry">
            <mxPoint x="400" y="260" as="sourcePoint" />
            <mxPoint x="450" y="210" as="targetPoint" />
          </mxGeometry>
        </mxCell>
        <mxCell id="L6aboQJGT98tequVDPCX-8" value="" style="endArrow=classic;startArrow=classic;html=1;entryX=-0.071;entryY=0.512;entryDx=0;entryDy=0;entryPerimeter=0;exitX=1;exitY=0.5;exitDx=0;exitDy=0;exitPerimeter=0;" parent="1" source="L6aboQJGT98tequVDPCX-3" target="L6aboQJGT98tequVDPCX-4" edge="1">
          <mxGeometry width="50" height="50" relative="1" as="geometry">
            <mxPoint x="400" y="260" as="sourcePoint" />
            <mxPoint x="720" y="260" as="targetPoint" />
          </mxGeometry>
        </mxCell>
      </root>
    </mxGraphModel>
  </diagram>
</mxfile>
